<svg xmlns="http://www.w3.org/2000/svg" viewBox="0 0 64 64" aria-hidden="true">
  <path fill="#fff" d="M31.4 4C18.1 4 7.1 13.3 4.5 25.8l14.5 6a8.3 8.3 0 0 1 4.7-1.4h.5l6.4-9.3v-.1c0-6.2 5-11.2 11.2-11.2S53 14.8 53 21s-5 11.2-11.2 11.2h-.3l-9.1 6.5v.4a8.4 8.4 0 0 1-16.6 1.8L4.2 36.1C6.1 49.6 17.6 60 31.4 60 46.9 60 59.4 47.5 59.4 32S46.9 4 31.4 4Zm-9.7 39.7-4.3-1.8a6.2 6.2 0 0 0 11.3-3.5 6.1 6.1 0 0 0-8.5-5.7l4.4 1.8a4.6 4.6 0 1 1-2.9 9.2Zm20.1-15a7.7 7.7 0 1 1 0-15.4 7.7 7.7 0 0 1 0 15.4Zm0-2.6a5.1 5.1 0 1 0 0-10.2 5.1 5.1 0 0 0 0 10.2Z"/>
</svg>
